<?xml version="1.0" encoding="UTF-8" standalone="no"?>
<!-- Created with Inkscape (http://www.inkscape.org/) -->

<svg
   width="24"
   height="24"
   viewBox="0 0 6.3499999 6.35"
   version="1.1"
   id="svg8770"
   inkscape:version="1.2.1 (9c6d41e, 2022-07-14)"
   sodipodi:docname="split_nodes.svg"
   xmlns:inkscape="http://www.inkscape.org/namespaces/inkscape"
   xmlns:sodipodi="http://sodipodi.sourceforge.net/DTD/sodipodi-0.dtd"
   xmlns="http://www.w3.org/2000/svg"
   xmlns:svg="http://www.w3.org/2000/svg">
  <sodipodi:namedview
     id="namedview8772"
     pagecolor="#ffffff"
     bordercolor="#666666"
     borderopacity="1.0"
     inkscape:showpageshadow="2"
     inkscape:pageopacity="0.0"
     inkscape:pagecheckerboard="0"
     inkscape:deskcolor="#d1d1d1"
     inkscape:document-units="mm"
     showgrid="false"
     inkscape:zoom="9.8333333"
     inkscape:cx="12"
     inkscape:cy="12"
     inkscape:window-width="729"
     inkscape:window-height="480"
     inkscape:window-x="0"
     inkscape:window-y="31"
     inkscape:window-maximized="0"
     inkscape:current-layer="layer1" />
  <defs
     id="defs8767">
    <marker
       style="overflow:visible"
       id="marker6776"
       refX="0"
       refY="0"
       orient="auto-start-reverse"
       inkscape:stockid="TriangleStart"
       markerWidth="4.9916334"
       markerHeight="5.6666179"
       viewBox="0 0 4.9916334 5.6666178"
       inkscape:isstock="true"
       inkscape:collect="always"
       preserveAspectRatio="xMidYMid">
      <path
         transform="scale(0.5)"
         style="fill:context-stroke;fill-rule:evenodd;stroke:context-stroke;stroke-width:1pt"
         d="M 5.77,0 -2.88,5 V -5 Z"
         id="path6774" />
    </marker>
  </defs>
  <g
     inkscape:label="Layer 1"
     inkscape:groupmode="layer"
     id="layer1">
    <g
       id="g9339"
       transform="translate(-139.03263,-181.82076)">
      <path
         style="fill:#ffffff;stroke:#000000;stroke-width:0.523264;stroke-linecap:round;stroke-linejoin:round;stroke-dasharray:none"
         id="path6710"
         sodipodi:type="arc"
         sodipodi:cx="144.3243"
         sodipodi:cy="182.87904"
         sodipodi:rx="0.53213638"
         sodipodi:ry="0.53213179"
         sodipodi:start="6.1922936"
         sodipodi:end="6.1893152"
         sodipodi:open="true"
         sodipodi:arc-type="arc"
         d="m 144.85423,182.83074 a 0.53213638,0.53213179 0 0 1 -0.48124,0.5782 0.53213638,0.53213179 0 0 1 -0.57856,-0.48081 0.53213638,0.53213179 0 0 1 0.48038,-0.57891 0.53213638,0.53213179 0 0 1 0.57928,0.47995" />
      <path
         style="fill:#ffffff;stroke:#000000;stroke-width:0.523264;stroke-linecap:round;stroke-linejoin:round;stroke-dasharray:none"
         id="path6712"
         sodipodi:type="arc"
         sodipodi:cx="144.3243"
         sodipodi:cy="187.11238"
         sodipodi:rx="0.53213638"
         sodipodi:ry="0.53213179"
         sodipodi:start="6.1922936"
         sodipodi:end="6.1893152"
         sodipodi:open="true"
         sodipodi:arc-type="arc"
         d="m 144.85423,187.06408 a 0.53213638,0.53213179 0 0 1 -0.48124,0.5782 0.53213638,0.53213179 0 0 1 -0.57856,-0.48081 0.53213638,0.53213179 0 0 1 0.48038,-0.57892 0.53213638,0.53213179 0 0 1 0.57928,0.47995" />
      <path
         style="fill:none;stroke:#000000;stroke-width:0.264583px;stroke-linecap:butt;stroke-linejoin:miter;stroke-opacity:1;marker-end:url(#marker6776)"
         d="m 140.09096,184.95162 c 0,-1.32293 0.47658,-2.11667 2.29067,-2.11667"
         id="path6766"
         sodipodi:nodetypes="cc" />
      <path
         style="fill:none;stroke:#000000;stroke-width:0.264583px;stroke-linecap:butt;stroke-linejoin:miter;stroke-opacity:1;marker-end:url(#marker6776)"
         d="m 140.09096,185.03991 c 0,1.32292 0.47658,2.11666 2.29067,2.11666"
         id="path6820"
         sodipodi:nodetypes="cc" />
      <path
         style="fill:#ffffff;stroke:#000000;stroke-width:0.523264;stroke-linecap:round;stroke-linejoin:round;stroke-dasharray:none"
         id="path6714"
         sodipodi:type="arc"
         sodipodi:cx="140.09096"
         sodipodi:cy="184.99571"
         sodipodi:rx="0.53213638"
         sodipodi:ry="0.53213179"
         sodipodi:start="6.1922936"
         sodipodi:end="6.1893152"
         sodipodi:open="true"
         sodipodi:arc-type="arc"
         d="m 140.6209,184.94741 a 0.53213638,0.53213179 0 0 1 -0.48125,0.5782 0.53213638,0.53213179 0 0 1 -0.57856,-0.48081 0.53213638,0.53213179 0 0 1 0.48038,-0.57891 0.53213638,0.53213179 0 0 1 0.57928,0.47994" />
    </g>
  </g>
</svg>
